<mxfile host="app.diagrams.net" modified="2024-01-30T17:27:54.928Z" agent="Mozilla/5.0 (Windows NT 10.0; Win64; x64) AppleWebKit/537.36 (KHTML, like Gecko) Chrome/120.0.0.0 Safari/537.36" etag="_n9aEkveE2TbXFhgHF7V" version="22.1.21" type="github">
  <diagram id="C5RBs43oDa-KdzZeNtuy" name="Page-1">
    <mxGraphModel dx="1247" dy="642" grid="1" gridSize="10" guides="1" tooltips="1" connect="1" arrows="1" fold="1" page="1" pageScale="1" pageWidth="827" pageHeight="1169" math="0" shadow="0">
      <root>
        <mxCell id="WIyWlLk6GJQsqaUBKTNV-0" />
        <mxCell id="WIyWlLk6GJQsqaUBKTNV-1" parent="WIyWlLk6GJQsqaUBKTNV-0" />
        <mxCell id="WitblhVI_im-lrWHp8Qs-33" value="c" style="edgeStyle=orthogonalEdgeStyle;rounded=0;orthogonalLoop=1;jettySize=auto;html=1;" edge="1" parent="WIyWlLk6GJQsqaUBKTNV-1" source="WIyWlLk6GJQsqaUBKTNV-3" target="WitblhVI_im-lrWHp8Qs-21">
          <mxGeometry relative="1" as="geometry" />
        </mxCell>
        <mxCell id="WIyWlLk6GJQsqaUBKTNV-3" value="Executa o arquivo .jar" style="rounded=1;whiteSpace=wrap;html=1;fontSize=12;glass=0;strokeWidth=1;shadow=0;perimeterSpacing=0;" parent="WIyWlLk6GJQsqaUBKTNV-1" vertex="1">
          <mxGeometry x="160" y="120" width="120" height="40" as="geometry" />
        </mxCell>
        <mxCell id="WitblhVI_im-lrWHp8Qs-12" value="Aguarda a entrada do usuário" style="rounded=1;whiteSpace=wrap;html=1;fontSize=12;glass=0;strokeWidth=1;shadow=0;perimeterSpacing=0;" vertex="1" parent="WIyWlLk6GJQsqaUBKTNV-1">
          <mxGeometry x="1080" y="524.5" width="120" height="40" as="geometry" />
        </mxCell>
        <mxCell id="WitblhVI_im-lrWHp8Qs-34" value="" style="edgeStyle=orthogonalEdgeStyle;rounded=0;orthogonalLoop=1;jettySize=auto;html=1;" edge="1" parent="WIyWlLk6GJQsqaUBKTNV-1" source="WitblhVI_im-lrWHp8Qs-21" target="WitblhVI_im-lrWHp8Qs-26">
          <mxGeometry relative="1" as="geometry" />
        </mxCell>
        <mxCell id="WitblhVI_im-lrWHp8Qs-43" value="" style="edgeStyle=orthogonalEdgeStyle;rounded=0;orthogonalLoop=1;jettySize=auto;html=1;" edge="1" parent="WIyWlLk6GJQsqaUBKTNV-1" source="WitblhVI_im-lrWHp8Qs-21" target="WitblhVI_im-lrWHp8Qs-42">
          <mxGeometry relative="1" as="geometry" />
        </mxCell>
        <mxCell id="WitblhVI_im-lrWHp8Qs-21" value="Inicia o FileWritter" style="rounded=1;whiteSpace=wrap;html=1;fontSize=12;glass=0;strokeWidth=1;shadow=0;perimeterSpacing=0;" vertex="1" parent="WIyWlLk6GJQsqaUBKTNV-1">
          <mxGeometry x="160" y="200" width="120" height="40" as="geometry" />
        </mxCell>
        <mxCell id="WitblhVI_im-lrWHp8Qs-35" value="" style="edgeStyle=orthogonalEdgeStyle;rounded=0;orthogonalLoop=1;jettySize=auto;html=1;" edge="1" parent="WIyWlLk6GJQsqaUBKTNV-1" source="WitblhVI_im-lrWHp8Qs-26" target="WitblhVI_im-lrWHp8Qs-27">
          <mxGeometry relative="1" as="geometry" />
        </mxCell>
        <mxCell id="WitblhVI_im-lrWHp8Qs-26" value="Carrega as propriedades" style="rounded=1;whiteSpace=wrap;html=1;fontSize=12;glass=0;strokeWidth=1;shadow=0;perimeterSpacing=0;" vertex="1" parent="WIyWlLk6GJQsqaUBKTNV-1">
          <mxGeometry x="160" y="280" width="120" height="40" as="geometry" />
        </mxCell>
        <mxCell id="WitblhVI_im-lrWHp8Qs-36" value="" style="edgeStyle=orthogonalEdgeStyle;rounded=0;orthogonalLoop=1;jettySize=auto;html=1;" edge="1" parent="WIyWlLk6GJQsqaUBKTNV-1" source="WitblhVI_im-lrWHp8Qs-27" target="WitblhVI_im-lrWHp8Qs-28">
          <mxGeometry relative="1" as="geometry" />
        </mxCell>
        <mxCell id="WitblhVI_im-lrWHp8Qs-66" value="" style="edgeStyle=orthogonalEdgeStyle;rounded=0;orthogonalLoop=1;jettySize=auto;html=1;" edge="1" parent="WIyWlLk6GJQsqaUBKTNV-1" source="WitblhVI_im-lrWHp8Qs-27" target="WitblhVI_im-lrWHp8Qs-65">
          <mxGeometry relative="1" as="geometry" />
        </mxCell>
        <mxCell id="WitblhVI_im-lrWHp8Qs-27" value="Inicializa a conexão com MongoDB" style="rounded=1;whiteSpace=wrap;html=1;fontSize=12;glass=0;strokeWidth=1;shadow=0;perimeterSpacing=0;" vertex="1" parent="WIyWlLk6GJQsqaUBKTNV-1">
          <mxGeometry x="160" y="360" width="120" height="40" as="geometry" />
        </mxCell>
        <mxCell id="WitblhVI_im-lrWHp8Qs-192" value="" style="edgeStyle=orthogonalEdgeStyle;rounded=0;orthogonalLoop=1;jettySize=auto;html=1;" edge="1" parent="WIyWlLk6GJQsqaUBKTNV-1" source="WitblhVI_im-lrWHp8Qs-28" target="WitblhVI_im-lrWHp8Qs-190">
          <mxGeometry relative="1" as="geometry" />
        </mxCell>
        <mxCell id="WitblhVI_im-lrWHp8Qs-28" value="Cria o servidor WebSocket" style="rounded=1;whiteSpace=wrap;html=1;fontSize=12;glass=0;strokeWidth=1;shadow=0;perimeterSpacing=0;" vertex="1" parent="WIyWlLk6GJQsqaUBKTNV-1">
          <mxGeometry x="160" y="440" width="120" height="40" as="geometry" />
        </mxCell>
        <mxCell id="WitblhVI_im-lrWHp8Qs-39" value="" style="edgeStyle=orthogonalEdgeStyle;rounded=0;orthogonalLoop=1;jettySize=auto;html=1;" edge="1" parent="WIyWlLk6GJQsqaUBKTNV-1" source="WitblhVI_im-lrWHp8Qs-30" target="WitblhVI_im-lrWHp8Qs-31">
          <mxGeometry relative="1" as="geometry" />
        </mxCell>
        <mxCell id="WitblhVI_im-lrWHp8Qs-209" value="" style="edgeStyle=orthogonalEdgeStyle;rounded=0;orthogonalLoop=1;jettySize=auto;html=1;" edge="1" parent="WIyWlLk6GJQsqaUBKTNV-1" source="WitblhVI_im-lrWHp8Qs-30" target="WitblhVI_im-lrWHp8Qs-12">
          <mxGeometry relative="1" as="geometry" />
        </mxCell>
        <mxCell id="WitblhVI_im-lrWHp8Qs-30" value="Servidor inicou?" style="rounded=1;whiteSpace=wrap;html=1;fontSize=12;glass=0;strokeWidth=1;shadow=0;perimeterSpacing=0;" vertex="1" parent="WIyWlLk6GJQsqaUBKTNV-1">
          <mxGeometry x="1230.5" y="524.5" width="120" height="40" as="geometry" />
        </mxCell>
        <mxCell id="WitblhVI_im-lrWHp8Qs-31" value="&lt;div style=&quot;border-color: var(--border-color);&quot;&gt;Encerra o programa&lt;/div&gt;" style="rounded=1;whiteSpace=wrap;html=1;fontSize=12;glass=0;strokeWidth=1;shadow=0;perimeterSpacing=0;" vertex="1" parent="WIyWlLk6GJQsqaUBKTNV-1">
          <mxGeometry x="1230.5" y="604.5" width="120" height="40" as="geometry" />
        </mxCell>
        <mxCell id="WitblhVI_im-lrWHp8Qs-45" value="" style="edgeStyle=orthogonalEdgeStyle;rounded=0;orthogonalLoop=1;jettySize=auto;html=1;" edge="1" parent="WIyWlLk6GJQsqaUBKTNV-1" source="WitblhVI_im-lrWHp8Qs-42" target="WitblhVI_im-lrWHp8Qs-44">
          <mxGeometry relative="1" as="geometry" />
        </mxCell>
        <mxCell id="WitblhVI_im-lrWHp8Qs-42" value="Cria a instância do FileWritter" style="rounded=1;whiteSpace=wrap;html=1;fontSize=12;glass=0;strokeWidth=1;shadow=0;perimeterSpacing=0;" vertex="1" parent="WIyWlLk6GJQsqaUBKTNV-1">
          <mxGeometry x="330" y="200" width="120" height="40" as="geometry" />
        </mxCell>
        <mxCell id="WitblhVI_im-lrWHp8Qs-48" value="" style="edgeStyle=orthogonalEdgeStyle;rounded=0;orthogonalLoop=1;jettySize=auto;html=1;" edge="1" parent="WIyWlLk6GJQsqaUBKTNV-1" source="WitblhVI_im-lrWHp8Qs-44" target="WitblhVI_im-lrWHp8Qs-47">
          <mxGeometry relative="1" as="geometry" />
        </mxCell>
        <mxCell id="WitblhVI_im-lrWHp8Qs-44" value="Chama o método &quot;write&quot;" style="rounded=1;whiteSpace=wrap;html=1;fontSize=12;glass=0;strokeWidth=1;shadow=0;perimeterSpacing=0;" vertex="1" parent="WIyWlLk6GJQsqaUBKTNV-1">
          <mxGeometry x="480" y="200" width="120" height="40" as="geometry" />
        </mxCell>
        <mxCell id="WitblhVI_im-lrWHp8Qs-50" value="" style="edgeStyle=orthogonalEdgeStyle;rounded=0;orthogonalLoop=1;jettySize=auto;html=1;" edge="1" parent="WIyWlLk6GJQsqaUBKTNV-1" source="WitblhVI_im-lrWHp8Qs-47" target="WitblhVI_im-lrWHp8Qs-49">
          <mxGeometry relative="1" as="geometry" />
        </mxCell>
        <mxCell id="WitblhVI_im-lrWHp8Qs-47" value="Cria o FileOutputStream&amp;nbsp;&lt;br/&gt;" style="rounded=1;whiteSpace=wrap;html=1;fontSize=12;glass=0;strokeWidth=1;shadow=0;perimeterSpacing=0;" vertex="1" parent="WIyWlLk6GJQsqaUBKTNV-1">
          <mxGeometry x="630" y="200" width="120" height="40" as="geometry" />
        </mxCell>
        <mxCell id="WitblhVI_im-lrWHp8Qs-53" value="" style="edgeStyle=orthogonalEdgeStyle;rounded=0;orthogonalLoop=1;jettySize=auto;html=1;" edge="1" parent="WIyWlLk6GJQsqaUBKTNV-1" source="WitblhVI_im-lrWHp8Qs-49" target="WitblhVI_im-lrWHp8Qs-52">
          <mxGeometry relative="1" as="geometry" />
        </mxCell>
        <mxCell id="WitblhVI_im-lrWHp8Qs-49" value="Cria DataOutputStream" style="rounded=1;whiteSpace=wrap;html=1;fontSize=12;glass=0;strokeWidth=1;shadow=0;perimeterSpacing=0;" vertex="1" parent="WIyWlLk6GJQsqaUBKTNV-1">
          <mxGeometry x="780" y="200" width="120" height="40" as="geometry" />
        </mxCell>
        <mxCell id="WitblhVI_im-lrWHp8Qs-55" value="" style="edgeStyle=orthogonalEdgeStyle;rounded=0;orthogonalLoop=1;jettySize=auto;html=1;" edge="1" parent="WIyWlLk6GJQsqaUBKTNV-1" source="WitblhVI_im-lrWHp8Qs-52" target="WitblhVI_im-lrWHp8Qs-54">
          <mxGeometry relative="1" as="geometry" />
        </mxCell>
        <mxCell id="WitblhVI_im-lrWHp8Qs-52" value="Escreve o cabeçalho no arquivo" style="rounded=1;whiteSpace=wrap;html=1;fontSize=12;glass=0;strokeWidth=1;shadow=0;perimeterSpacing=0;" vertex="1" parent="WIyWlLk6GJQsqaUBKTNV-1">
          <mxGeometry x="930" y="200" width="120" height="40" as="geometry" />
        </mxCell>
        <mxCell id="WitblhVI_im-lrWHp8Qs-58" value="" style="edgeStyle=orthogonalEdgeStyle;rounded=0;orthogonalLoop=1;jettySize=auto;html=1;" edge="1" parent="WIyWlLk6GJQsqaUBKTNV-1" source="WitblhVI_im-lrWHp8Qs-54" target="WitblhVI_im-lrWHp8Qs-57">
          <mxGeometry relative="1" as="geometry" />
        </mxCell>
        <mxCell id="WitblhVI_im-lrWHp8Qs-54" value="Escreve o texto no arquivo" style="rounded=1;whiteSpace=wrap;html=1;fontSize=12;glass=0;strokeWidth=1;shadow=0;perimeterSpacing=0;" vertex="1" parent="WIyWlLk6GJQsqaUBKTNV-1">
          <mxGeometry x="1080" y="200" width="120" height="40" as="geometry" />
        </mxCell>
        <mxCell id="WitblhVI_im-lrWHp8Qs-61" value="" style="edgeStyle=orthogonalEdgeStyle;rounded=0;orthogonalLoop=1;jettySize=auto;html=1;" edge="1" parent="WIyWlLk6GJQsqaUBKTNV-1" source="WitblhVI_im-lrWHp8Qs-57" target="WitblhVI_im-lrWHp8Qs-60">
          <mxGeometry relative="1" as="geometry" />
        </mxCell>
        <mxCell id="WitblhVI_im-lrWHp8Qs-57" value="Escreve o rodapé no arquivo" style="rounded=1;whiteSpace=wrap;html=1;fontSize=12;glass=0;strokeWidth=1;shadow=0;perimeterSpacing=0;" vertex="1" parent="WIyWlLk6GJQsqaUBKTNV-1">
          <mxGeometry x="1230.5" y="200" width="120" height="40" as="geometry" />
        </mxCell>
        <mxCell id="WitblhVI_im-lrWHp8Qs-60" value="Fecha o DataOutputStream" style="rounded=1;whiteSpace=wrap;html=1;fontSize=12;glass=0;strokeWidth=1;shadow=0;perimeterSpacing=0;" vertex="1" parent="WIyWlLk6GJQsqaUBKTNV-1">
          <mxGeometry x="1380" y="200" width="120" height="40" as="geometry" />
        </mxCell>
        <mxCell id="WitblhVI_im-lrWHp8Qs-68" value="" style="edgeStyle=orthogonalEdgeStyle;rounded=0;orthogonalLoop=1;jettySize=auto;html=1;" edge="1" parent="WIyWlLk6GJQsqaUBKTNV-1" source="WitblhVI_im-lrWHp8Qs-65" target="WitblhVI_im-lrWHp8Qs-67">
          <mxGeometry relative="1" as="geometry" />
        </mxCell>
        <mxCell id="WitblhVI_im-lrWHp8Qs-65" value="Carrega as propriedades" style="rounded=1;whiteSpace=wrap;html=1;fontSize=12;glass=0;strokeWidth=1;shadow=0;perimeterSpacing=0;" vertex="1" parent="WIyWlLk6GJQsqaUBKTNV-1">
          <mxGeometry x="330" y="360" width="120" height="40" as="geometry" />
        </mxCell>
        <mxCell id="WitblhVI_im-lrWHp8Qs-70" value="" style="edgeStyle=orthogonalEdgeStyle;rounded=0;orthogonalLoop=1;jettySize=auto;html=1;" edge="1" parent="WIyWlLk6GJQsqaUBKTNV-1" source="WitblhVI_im-lrWHp8Qs-67" target="WitblhVI_im-lrWHp8Qs-69">
          <mxGeometry relative="1" as="geometry" />
        </mxCell>
        <mxCell id="WitblhVI_im-lrWHp8Qs-67" value="Atribui os valores lidos nas propriedades às variáveis correspondentes" style="rounded=1;whiteSpace=wrap;html=1;fontSize=12;glass=0;strokeWidth=1;shadow=0;perimeterSpacing=0;" vertex="1" parent="WIyWlLk6GJQsqaUBKTNV-1">
          <mxGeometry x="480" y="350" width="140" height="60" as="geometry" />
        </mxCell>
        <mxCell id="WitblhVI_im-lrWHp8Qs-73" value="" style="edgeStyle=orthogonalEdgeStyle;rounded=0;orthogonalLoop=1;jettySize=auto;html=1;" edge="1" parent="WIyWlLk6GJQsqaUBKTNV-1" source="WitblhVI_im-lrWHp8Qs-69" target="WitblhVI_im-lrWHp8Qs-71">
          <mxGeometry relative="1" as="geometry" />
        </mxCell>
        <mxCell id="WitblhVI_im-lrWHp8Qs-69" value="Inicializa as conexões com o MongoDB" style="rounded=1;whiteSpace=wrap;html=1;fontSize=12;glass=0;strokeWidth=1;shadow=0;perimeterSpacing=0;" vertex="1" parent="WIyWlLk6GJQsqaUBKTNV-1">
          <mxGeometry x="650" y="350" width="140" height="60" as="geometry" />
        </mxCell>
        <mxCell id="WitblhVI_im-lrWHp8Qs-75" value="" style="edgeStyle=orthogonalEdgeStyle;rounded=0;orthogonalLoop=1;jettySize=auto;html=1;" edge="1" parent="WIyWlLk6GJQsqaUBKTNV-1" source="WitblhVI_im-lrWHp8Qs-71" target="WitblhVI_im-lrWHp8Qs-74">
          <mxGeometry relative="1" as="geometry" />
        </mxCell>
        <mxCell id="WitblhVI_im-lrWHp8Qs-71" value="Cria os clientes e as databases necessárias" style="rounded=1;whiteSpace=wrap;html=1;fontSize=12;glass=0;strokeWidth=1;shadow=0;perimeterSpacing=0;" vertex="1" parent="WIyWlLk6GJQsqaUBKTNV-1">
          <mxGeometry x="840" y="350" width="140" height="60" as="geometry" />
        </mxCell>
        <mxCell id="WitblhVI_im-lrWHp8Qs-189" style="edgeStyle=orthogonalEdgeStyle;rounded=0;orthogonalLoop=1;jettySize=auto;html=1;exitX=1;exitY=0.5;exitDx=0;exitDy=0;entryX=0;entryY=0.5;entryDx=0;entryDy=0;" edge="1" parent="WIyWlLk6GJQsqaUBKTNV-1" source="WitblhVI_im-lrWHp8Qs-74" target="WitblhVI_im-lrWHp8Qs-76">
          <mxGeometry relative="1" as="geometry" />
        </mxCell>
        <mxCell id="WitblhVI_im-lrWHp8Qs-74" value="Obtém as collections necessárias" style="rounded=1;whiteSpace=wrap;html=1;fontSize=12;glass=0;strokeWidth=1;shadow=0;perimeterSpacing=0;" vertex="1" parent="WIyWlLk6GJQsqaUBKTNV-1">
          <mxGeometry x="1040" y="360" width="120" height="40" as="geometry" />
        </mxCell>
        <mxCell id="WitblhVI_im-lrWHp8Qs-165" value="" style="edgeStyle=orthogonalEdgeStyle;rounded=0;orthogonalLoop=1;jettySize=auto;html=1;" edge="1" parent="WIyWlLk6GJQsqaUBKTNV-1" source="WitblhVI_im-lrWHp8Qs-76" target="WitblhVI_im-lrWHp8Qs-91">
          <mxGeometry relative="1" as="geometry" />
        </mxCell>
        <mxCell id="WitblhVI_im-lrWHp8Qs-167" style="edgeStyle=orthogonalEdgeStyle;rounded=0;orthogonalLoop=1;jettySize=auto;html=1;entryX=0.5;entryY=0;entryDx=0;entryDy=0;" edge="1" parent="WIyWlLk6GJQsqaUBKTNV-1" source="WitblhVI_im-lrWHp8Qs-76" target="WitblhVI_im-lrWHp8Qs-90">
          <mxGeometry relative="1" as="geometry" />
        </mxCell>
        <mxCell id="WitblhVI_im-lrWHp8Qs-174" value="" style="edgeStyle=orthogonalEdgeStyle;rounded=0;orthogonalLoop=1;jettySize=auto;html=1;" edge="1" parent="WIyWlLk6GJQsqaUBKTNV-1" source="WitblhVI_im-lrWHp8Qs-76" target="WitblhVI_im-lrWHp8Qs-91">
          <mxGeometry relative="1" as="geometry" />
        </mxCell>
        <mxCell id="WitblhVI_im-lrWHp8Qs-175" style="edgeStyle=orthogonalEdgeStyle;rounded=0;orthogonalLoop=1;jettySize=auto;html=1;exitX=0.5;exitY=1;exitDx=0;exitDy=0;entryX=0.5;entryY=0;entryDx=0;entryDy=0;" edge="1" parent="WIyWlLk6GJQsqaUBKTNV-1" source="WitblhVI_im-lrWHp8Qs-76" target="WitblhVI_im-lrWHp8Qs-89">
          <mxGeometry relative="1" as="geometry" />
        </mxCell>
        <mxCell id="WitblhVI_im-lrWHp8Qs-176" style="edgeStyle=orthogonalEdgeStyle;rounded=0;orthogonalLoop=1;jettySize=auto;html=1;exitX=0.5;exitY=1;exitDx=0;exitDy=0;" edge="1" parent="WIyWlLk6GJQsqaUBKTNV-1" source="WitblhVI_im-lrWHp8Qs-76" target="WitblhVI_im-lrWHp8Qs-92">
          <mxGeometry relative="1" as="geometry" />
        </mxCell>
        <mxCell id="WitblhVI_im-lrWHp8Qs-76" value="Chama os métodos getXML, updateDocument, saveHttpInfo, insereFilaProcessamento conforme necessário" style="rounded=1;whiteSpace=wrap;html=1;fontSize=12;glass=0;strokeWidth=1;shadow=0;perimeterSpacing=0;" vertex="1" parent="WIyWlLk6GJQsqaUBKTNV-1">
          <mxGeometry x="1570" y="350" width="220" height="60" as="geometry" />
        </mxCell>
        <mxCell id="WitblhVI_im-lrWHp8Qs-89" value="getXML" style="rounded=1;whiteSpace=wrap;html=1;fontSize=12;glass=0;strokeWidth=1;shadow=0;perimeterSpacing=0;" vertex="1" parent="WIyWlLk6GJQsqaUBKTNV-1">
          <mxGeometry x="1440" y="480" width="120" height="40" as="geometry" />
        </mxCell>
        <mxCell id="WitblhVI_im-lrWHp8Qs-149" value="" style="edgeStyle=orthogonalEdgeStyle;rounded=0;orthogonalLoop=1;jettySize=auto;html=1;" edge="1" parent="WIyWlLk6GJQsqaUBKTNV-1" source="WitblhVI_im-lrWHp8Qs-90" target="WitblhVI_im-lrWHp8Qs-97">
          <mxGeometry relative="1" as="geometry" />
        </mxCell>
        <mxCell id="WitblhVI_im-lrWHp8Qs-90" value="updateDocument" style="rounded=1;whiteSpace=wrap;html=1;fontSize=12;glass=0;strokeWidth=1;shadow=0;perimeterSpacing=0;" vertex="1" parent="WIyWlLk6GJQsqaUBKTNV-1">
          <mxGeometry x="1570" y="480" width="120" height="40" as="geometry" />
        </mxCell>
        <mxCell id="WitblhVI_im-lrWHp8Qs-157" value="" style="edgeStyle=orthogonalEdgeStyle;rounded=0;orthogonalLoop=1;jettySize=auto;html=1;" edge="1" parent="WIyWlLk6GJQsqaUBKTNV-1" source="WitblhVI_im-lrWHp8Qs-91" target="WitblhVI_im-lrWHp8Qs-156">
          <mxGeometry relative="1" as="geometry" />
        </mxCell>
        <mxCell id="WitblhVI_im-lrWHp8Qs-91" value="saveHttpInfo" style="rounded=1;whiteSpace=wrap;html=1;fontSize=12;glass=0;strokeWidth=1;shadow=0;perimeterSpacing=0;" vertex="1" parent="WIyWlLk6GJQsqaUBKTNV-1">
          <mxGeometry x="1700" y="480" width="120" height="40" as="geometry" />
        </mxCell>
        <mxCell id="WitblhVI_im-lrWHp8Qs-159" value="" style="edgeStyle=orthogonalEdgeStyle;rounded=0;orthogonalLoop=1;jettySize=auto;html=1;" edge="1" parent="WIyWlLk6GJQsqaUBKTNV-1" source="WitblhVI_im-lrWHp8Qs-92" target="WitblhVI_im-lrWHp8Qs-158">
          <mxGeometry relative="1" as="geometry" />
        </mxCell>
        <mxCell id="WitblhVI_im-lrWHp8Qs-92" value="insereFilaProcessamento" style="rounded=1;whiteSpace=wrap;html=1;fontSize=12;glass=0;strokeWidth=1;shadow=0;perimeterSpacing=0;" vertex="1" parent="WIyWlLk6GJQsqaUBKTNV-1">
          <mxGeometry x="1830" y="480" width="150" height="40" as="geometry" />
        </mxCell>
        <mxCell id="WitblhVI_im-lrWHp8Qs-103" style="edgeStyle=orthogonalEdgeStyle;rounded=0;orthogonalLoop=1;jettySize=auto;html=1;exitX=0.5;exitY=1;exitDx=0;exitDy=0;" edge="1" parent="WIyWlLk6GJQsqaUBKTNV-1" source="WitblhVI_im-lrWHp8Qs-100">
          <mxGeometry relative="1" as="geometry">
            <mxPoint x="1490" y="765" as="targetPoint" />
          </mxGeometry>
        </mxCell>
        <mxCell id="WitblhVI_im-lrWHp8Qs-104" style="edgeStyle=orthogonalEdgeStyle;rounded=0;orthogonalLoop=1;jettySize=auto;html=1;exitX=0.5;exitY=1;exitDx=0;exitDy=0;" edge="1" parent="WIyWlLk6GJQsqaUBKTNV-1" source="WitblhVI_im-lrWHp8Qs-100">
          <mxGeometry relative="1" as="geometry">
            <mxPoint x="1640" y="765" as="targetPoint" />
          </mxGeometry>
        </mxCell>
        <mxCell id="WitblhVI_im-lrWHp8Qs-100" value="Existe?" style="rounded=1;whiteSpace=wrap;html=1;fontSize=12;glass=0;strokeWidth=1;shadow=0;perimeterSpacing=0;" vertex="1" parent="WIyWlLk6GJQsqaUBKTNV-1">
          <mxGeometry x="1510" y="655" width="120" height="40" as="geometry" />
        </mxCell>
        <mxCell id="WitblhVI_im-lrWHp8Qs-109" style="edgeStyle=orthogonalEdgeStyle;rounded=0;orthogonalLoop=1;jettySize=auto;html=1;exitX=1;exitY=0.5;exitDx=0;exitDy=0;entryX=0.5;entryY=0;entryDx=0;entryDy=0;" edge="1" parent="WIyWlLk6GJQsqaUBKTNV-1" source="WitblhVI_im-lrWHp8Qs-105" target="WitblhVI_im-lrWHp8Qs-136">
          <mxGeometry relative="1" as="geometry">
            <mxPoint x="1720" y="785" as="targetPoint" />
          </mxGeometry>
        </mxCell>
        <mxCell id="WitblhVI_im-lrWHp8Qs-105" value="Não" style="rounded=1;whiteSpace=wrap;html=1;fontSize=12;glass=0;strokeWidth=1;shadow=0;perimeterSpacing=0;" vertex="1" parent="WIyWlLk6GJQsqaUBKTNV-1">
          <mxGeometry x="1580" y="765" width="120" height="40" as="geometry" />
        </mxCell>
        <mxCell id="WitblhVI_im-lrWHp8Qs-111" style="edgeStyle=orthogonalEdgeStyle;rounded=0;orthogonalLoop=1;jettySize=auto;html=1;entryX=0.5;entryY=0;entryDx=0;entryDy=0;" edge="1" parent="WIyWlLk6GJQsqaUBKTNV-1" source="WitblhVI_im-lrWHp8Qs-106" target="WitblhVI_im-lrWHp8Qs-110">
          <mxGeometry relative="1" as="geometry" />
        </mxCell>
        <mxCell id="WitblhVI_im-lrWHp8Qs-115" style="edgeStyle=orthogonalEdgeStyle;rounded=0;orthogonalLoop=1;jettySize=auto;html=1;entryX=0.5;entryY=0;entryDx=0;entryDy=0;" edge="1" parent="WIyWlLk6GJQsqaUBKTNV-1" source="WitblhVI_im-lrWHp8Qs-106" target="WitblhVI_im-lrWHp8Qs-112">
          <mxGeometry relative="1" as="geometry" />
        </mxCell>
        <mxCell id="WitblhVI_im-lrWHp8Qs-106" value="Sim" style="rounded=1;whiteSpace=wrap;html=1;fontSize=12;glass=0;strokeWidth=1;shadow=0;perimeterSpacing=0;" vertex="1" parent="WIyWlLk6GJQsqaUBKTNV-1">
          <mxGeometry x="1430" y="765" width="120" height="40" as="geometry" />
        </mxCell>
        <mxCell id="WitblhVI_im-lrWHp8Qs-154" value="" style="edgeStyle=orthogonalEdgeStyle;rounded=0;orthogonalLoop=1;jettySize=auto;html=1;" edge="1" parent="WIyWlLk6GJQsqaUBKTNV-1" source="WitblhVI_im-lrWHp8Qs-110" target="WitblhVI_im-lrWHp8Qs-151">
          <mxGeometry relative="1" as="geometry" />
        </mxCell>
        <mxCell id="WitblhVI_im-lrWHp8Qs-110" value="Existe mais de um" style="rounded=1;whiteSpace=wrap;html=1;fontSize=12;glass=0;strokeWidth=1;shadow=0;perimeterSpacing=0;" vertex="1" parent="WIyWlLk6GJQsqaUBKTNV-1">
          <mxGeometry x="1330" y="845" width="120" height="40" as="geometry" />
        </mxCell>
        <mxCell id="WitblhVI_im-lrWHp8Qs-119" value="" style="edgeStyle=orthogonalEdgeStyle;rounded=0;orthogonalLoop=1;jettySize=auto;html=1;" edge="1" parent="WIyWlLk6GJQsqaUBKTNV-1" source="WitblhVI_im-lrWHp8Qs-112" target="WitblhVI_im-lrWHp8Qs-118">
          <mxGeometry relative="1" as="geometry" />
        </mxCell>
        <mxCell id="WitblhVI_im-lrWHp8Qs-112" value="Existe apenas um" style="rounded=1;whiteSpace=wrap;html=1;fontSize=12;glass=0;strokeWidth=1;shadow=0;perimeterSpacing=0;" vertex="1" parent="WIyWlLk6GJQsqaUBKTNV-1">
          <mxGeometry x="1510" y="845" width="120" height="40" as="geometry" />
        </mxCell>
        <mxCell id="WitblhVI_im-lrWHp8Qs-118" value="obtém o documento e retorna&amp;nbsp; os dados do documento" style="rounded=1;whiteSpace=wrap;html=1;fontSize=12;glass=0;strokeWidth=1;shadow=0;perimeterSpacing=0;" vertex="1" parent="WIyWlLk6GJQsqaUBKTNV-1">
          <mxGeometry x="1490" y="920" width="160" height="50" as="geometry" />
        </mxCell>
        <mxCell id="WitblhVI_im-lrWHp8Qs-136" value="Recebe um retorno indicando que o documento não foi localizado no banco de dados" style="rounded=1;whiteSpace=wrap;html=1;fontSize=12;glass=0;strokeWidth=1;shadow=0;perimeterSpacing=0;" vertex="1" parent="WIyWlLk6GJQsqaUBKTNV-1">
          <mxGeometry x="1650" y="845" width="160" height="60" as="geometry" />
        </mxCell>
        <mxCell id="WitblhVI_im-lrWHp8Qs-148" value="" style="edgeStyle=orthogonalEdgeStyle;rounded=0;orthogonalLoop=1;jettySize=auto;html=1;exitX=0.5;exitY=1;exitDx=0;exitDy=0;" edge="1" parent="WIyWlLk6GJQsqaUBKTNV-1" source="WitblhVI_im-lrWHp8Qs-89" target="WitblhVI_im-lrWHp8Qs-97">
          <mxGeometry relative="1" as="geometry">
            <mxPoint x="1500" y="600" as="targetPoint" />
            <mxPoint x="1500" y="520" as="sourcePoint" />
          </mxGeometry>
        </mxCell>
        <mxCell id="WitblhVI_im-lrWHp8Qs-150" value="" style="edgeStyle=orthogonalEdgeStyle;rounded=0;orthogonalLoop=1;jettySize=auto;html=1;" edge="1" parent="WIyWlLk6GJQsqaUBKTNV-1" source="WitblhVI_im-lrWHp8Qs-97" target="WitblhVI_im-lrWHp8Qs-100">
          <mxGeometry relative="1" as="geometry" />
        </mxCell>
        <mxCell id="WitblhVI_im-lrWHp8Qs-97" value="Verifica se o documento existe" style="rounded=1;whiteSpace=wrap;html=1;fontSize=12;glass=0;strokeWidth=1;shadow=0;perimeterSpacing=0;" vertex="1" parent="WIyWlLk6GJQsqaUBKTNV-1">
          <mxGeometry x="1510" y="585" width="120" height="40" as="geometry" />
        </mxCell>
        <mxCell id="WitblhVI_im-lrWHp8Qs-151" value="retorna um aviso que o documento está duplicado no banco de dados" style="rounded=1;whiteSpace=wrap;html=1;fontSize=12;glass=0;strokeWidth=1;shadow=0;perimeterSpacing=0;" vertex="1" parent="WIyWlLk6GJQsqaUBKTNV-1">
          <mxGeometry x="1300" y="920" width="180" height="50" as="geometry" />
        </mxCell>
        <mxCell id="WitblhVI_im-lrWHp8Qs-156" value="&lt;div&gt;&lt;br&gt;&lt;/div&gt;&lt;div&gt;Atualiza o documento com as informações HTTP fornecidas&lt;/div&gt;&lt;div&gt;&lt;br&gt;&lt;/div&gt;" style="rounded=1;whiteSpace=wrap;html=1;fontSize=12;glass=0;strokeWidth=1;shadow=0;perimeterSpacing=0;" vertex="1" parent="WIyWlLk6GJQsqaUBKTNV-1">
          <mxGeometry x="1690" y="580" width="140" height="50" as="geometry" />
        </mxCell>
        <mxCell id="WitblhVI_im-lrWHp8Qs-178" value="" style="edgeStyle=orthogonalEdgeStyle;rounded=0;orthogonalLoop=1;jettySize=auto;html=1;" edge="1" parent="WIyWlLk6GJQsqaUBKTNV-1" source="WitblhVI_im-lrWHp8Qs-158" target="WitblhVI_im-lrWHp8Qs-177">
          <mxGeometry relative="1" as="geometry" />
        </mxCell>
        <mxCell id="WitblhVI_im-lrWHp8Qs-158" value="Tenta inserir um novo documento na fila de processamento" style="rounded=1;whiteSpace=wrap;html=1;fontSize=12;glass=0;strokeWidth=1;shadow=0;perimeterSpacing=0;" vertex="1" parent="WIyWlLk6GJQsqaUBKTNV-1">
          <mxGeometry x="1841" y="580" width="169" height="50" as="geometry" />
        </mxCell>
        <mxCell id="WitblhVI_im-lrWHp8Qs-181" value="" style="edgeStyle=orthogonalEdgeStyle;rounded=0;orthogonalLoop=1;jettySize=auto;html=1;" edge="1" parent="WIyWlLk6GJQsqaUBKTNV-1" source="WitblhVI_im-lrWHp8Qs-177" target="WitblhVI_im-lrWHp8Qs-180">
          <mxGeometry relative="1" as="geometry" />
        </mxCell>
        <mxCell id="WitblhVI_im-lrWHp8Qs-182" style="edgeStyle=orthogonalEdgeStyle;rounded=0;orthogonalLoop=1;jettySize=auto;html=1;exitX=0.5;exitY=1;exitDx=0;exitDy=0;" edge="1" parent="WIyWlLk6GJQsqaUBKTNV-1" source="WitblhVI_im-lrWHp8Qs-177" target="WitblhVI_im-lrWHp8Qs-179">
          <mxGeometry relative="1" as="geometry" />
        </mxCell>
        <mxCell id="WitblhVI_im-lrWHp8Qs-177" value="Conseguiu?" style="rounded=1;whiteSpace=wrap;html=1;fontSize=12;glass=0;strokeWidth=1;shadow=0;perimeterSpacing=0;" vertex="1" parent="WIyWlLk6GJQsqaUBKTNV-1">
          <mxGeometry x="1851" y="670" width="149" height="50" as="geometry" />
        </mxCell>
        <mxCell id="WitblhVI_im-lrWHp8Qs-188" value="" style="edgeStyle=orthogonalEdgeStyle;rounded=0;orthogonalLoop=1;jettySize=auto;html=1;" edge="1" parent="WIyWlLk6GJQsqaUBKTNV-1" source="WitblhVI_im-lrWHp8Qs-179" target="WitblhVI_im-lrWHp8Qs-187">
          <mxGeometry relative="1" as="geometry" />
        </mxCell>
        <mxCell id="WitblhVI_im-lrWHp8Qs-179" value="Não" style="rounded=1;whiteSpace=wrap;html=1;fontSize=12;glass=0;strokeWidth=1;shadow=0;perimeterSpacing=0;" vertex="1" parent="WIyWlLk6GJQsqaUBKTNV-1">
          <mxGeometry x="1940" y="780" width="120" height="40" as="geometry" />
        </mxCell>
        <mxCell id="WitblhVI_im-lrWHp8Qs-186" value="" style="edgeStyle=orthogonalEdgeStyle;rounded=0;orthogonalLoop=1;jettySize=auto;html=1;" edge="1" parent="WIyWlLk6GJQsqaUBKTNV-1" source="WitblhVI_im-lrWHp8Qs-180" target="WitblhVI_im-lrWHp8Qs-185">
          <mxGeometry relative="1" as="geometry" />
        </mxCell>
        <mxCell id="WitblhVI_im-lrWHp8Qs-180" value="Sim" style="rounded=1;whiteSpace=wrap;html=1;fontSize=12;glass=0;strokeWidth=1;shadow=0;perimeterSpacing=0;" vertex="1" parent="WIyWlLk6GJQsqaUBKTNV-1">
          <mxGeometry x="1790" y="780" width="120" height="40" as="geometry" />
        </mxCell>
        <mxCell id="WitblhVI_im-lrWHp8Qs-185" value="Retorna true" style="rounded=1;whiteSpace=wrap;html=1;fontSize=12;glass=0;strokeWidth=1;shadow=0;perimeterSpacing=0;" vertex="1" parent="WIyWlLk6GJQsqaUBKTNV-1">
          <mxGeometry x="1790" y="925" width="120" height="40" as="geometry" />
        </mxCell>
        <mxCell id="WitblhVI_im-lrWHp8Qs-187" value="Retorna false" style="rounded=1;whiteSpace=wrap;html=1;fontSize=12;glass=0;strokeWidth=1;shadow=0;perimeterSpacing=0;" vertex="1" parent="WIyWlLk6GJQsqaUBKTNV-1">
          <mxGeometry x="1940" y="870" width="120" height="40" as="geometry" />
        </mxCell>
        <mxCell id="WitblhVI_im-lrWHp8Qs-194" value="" style="edgeStyle=orthogonalEdgeStyle;rounded=0;orthogonalLoop=1;jettySize=auto;html=1;" edge="1" parent="WIyWlLk6GJQsqaUBKTNV-1" source="WitblhVI_im-lrWHp8Qs-190" target="WitblhVI_im-lrWHp8Qs-193">
          <mxGeometry relative="1" as="geometry" />
        </mxCell>
        <mxCell id="WitblhVI_im-lrWHp8Qs-190" value="Configura o servidor WebSocket" style="rounded=1;whiteSpace=wrap;html=1;fontSize=12;glass=0;strokeWidth=1;shadow=0;perimeterSpacing=0;" vertex="1" parent="WIyWlLk6GJQsqaUBKTNV-1">
          <mxGeometry x="320" y="440" width="120" height="40" as="geometry" />
        </mxCell>
        <mxCell id="WitblhVI_im-lrWHp8Qs-196" value="" style="edgeStyle=orthogonalEdgeStyle;rounded=0;orthogonalLoop=1;jettySize=auto;html=1;" edge="1" parent="WIyWlLk6GJQsqaUBKTNV-1" source="WitblhVI_im-lrWHp8Qs-193" target="WitblhVI_im-lrWHp8Qs-195">
          <mxGeometry relative="1" as="geometry" />
        </mxCell>
        <mxCell id="WitblhVI_im-lrWHp8Qs-193" value="Define o IP e porta do servidor" style="rounded=1;whiteSpace=wrap;html=1;fontSize=12;glass=0;strokeWidth=1;shadow=0;perimeterSpacing=0;" vertex="1" parent="WIyWlLk6GJQsqaUBKTNV-1">
          <mxGeometry x="480" y="440" width="120" height="40" as="geometry" />
        </mxCell>
        <mxCell id="WitblhVI_im-lrWHp8Qs-198" value="" style="edgeStyle=orthogonalEdgeStyle;rounded=0;orthogonalLoop=1;jettySize=auto;html=1;" edge="1" parent="WIyWlLk6GJQsqaUBKTNV-1" source="WitblhVI_im-lrWHp8Qs-195" target="WitblhVI_im-lrWHp8Qs-197">
          <mxGeometry relative="1" as="geometry" />
        </mxCell>
        <mxCell id="WitblhVI_im-lrWHp8Qs-195" value="Define o endpoint do servidor" style="rounded=1;whiteSpace=wrap;html=1;fontSize=12;glass=0;strokeWidth=1;shadow=0;perimeterSpacing=0;" vertex="1" parent="WIyWlLk6GJQsqaUBKTNV-1">
          <mxGeometry x="630" y="440" width="120" height="40" as="geometry" />
        </mxCell>
        <mxCell id="WitblhVI_im-lrWHp8Qs-200" value="" style="edgeStyle=orthogonalEdgeStyle;rounded=0;orthogonalLoop=1;jettySize=auto;html=1;" edge="1" parent="WIyWlLk6GJQsqaUBKTNV-1" source="WitblhVI_im-lrWHp8Qs-197" target="WitblhVI_im-lrWHp8Qs-199">
          <mxGeometry relative="1" as="geometry" />
        </mxCell>
        <mxCell id="WitblhVI_im-lrWHp8Qs-197" value="Define a classe do endpoint do servidor" style="rounded=1;whiteSpace=wrap;html=1;fontSize=12;glass=0;strokeWidth=1;shadow=0;perimeterSpacing=0;" vertex="1" parent="WIyWlLk6GJQsqaUBKTNV-1">
          <mxGeometry x="780" y="440" width="120" height="40" as="geometry" />
        </mxCell>
        <mxCell id="WitblhVI_im-lrWHp8Qs-203" value="" style="edgeStyle=orthogonalEdgeStyle;rounded=0;orthogonalLoop=1;jettySize=auto;html=1;" edge="1" parent="WIyWlLk6GJQsqaUBKTNV-1" source="WitblhVI_im-lrWHp8Qs-199" target="WitblhVI_im-lrWHp8Qs-201">
          <mxGeometry relative="1" as="geometry" />
        </mxCell>
        <mxCell id="WitblhVI_im-lrWHp8Qs-199" value="Inicializa o servidor WebSocket" style="rounded=1;whiteSpace=wrap;html=1;fontSize=12;glass=0;strokeWidth=1;shadow=0;perimeterSpacing=0;" vertex="1" parent="WIyWlLk6GJQsqaUBKTNV-1">
          <mxGeometry x="930" y="440" width="120" height="40" as="geometry" />
        </mxCell>
        <mxCell id="WitblhVI_im-lrWHp8Qs-205" value="" style="edgeStyle=orthogonalEdgeStyle;rounded=0;orthogonalLoop=1;jettySize=auto;html=1;" edge="1" parent="WIyWlLk6GJQsqaUBKTNV-1" source="WitblhVI_im-lrWHp8Qs-201" target="WitblhVI_im-lrWHp8Qs-204">
          <mxGeometry relative="1" as="geometry" />
        </mxCell>
        <mxCell id="WitblhVI_im-lrWHp8Qs-201" value="Cria a instância do servidor" style="rounded=1;whiteSpace=wrap;html=1;fontSize=12;glass=0;strokeWidth=1;shadow=0;perimeterSpacing=0;" vertex="1" parent="WIyWlLk6GJQsqaUBKTNV-1">
          <mxGeometry x="1080" y="440" width="120" height="40" as="geometry" />
        </mxCell>
        <mxCell id="WitblhVI_im-lrWHp8Qs-210" value="" style="edgeStyle=orthogonalEdgeStyle;rounded=0;orthogonalLoop=1;jettySize=auto;html=1;" edge="1" parent="WIyWlLk6GJQsqaUBKTNV-1" source="WitblhVI_im-lrWHp8Qs-204" target="WitblhVI_im-lrWHp8Qs-30">
          <mxGeometry relative="1" as="geometry" />
        </mxCell>
        <mxCell id="WitblhVI_im-lrWHp8Qs-204" value="Tenta iniciar o servidor" style="rounded=1;whiteSpace=wrap;html=1;fontSize=12;glass=0;strokeWidth=1;shadow=0;perimeterSpacing=0;" vertex="1" parent="WIyWlLk6GJQsqaUBKTNV-1">
          <mxGeometry x="1230.5" y="440" width="120" height="40" as="geometry" />
        </mxCell>
      </root>
    </mxGraphModel>
  </diagram>
</mxfile>
